<mxfile modified="2022-01-27T21:37:12.175Z" host="app.diagrams.net" agent="5.0 (Windows NT 10.0; Win64; x64) AppleWebKit/537.36 (KHTML, like Gecko) Chrome/97.0.4692.99 Safari/537.36" etag="Ad6C8nXsjPt6WB6BrTAv" version="16.4.5" type="github">
  <diagram id="Ht1M8jgEwFfnCIfOTk4-" name="Page-1">
    <mxGraphModel dx="1497" dy="802" grid="1" gridSize="10" guides="1" tooltips="1" connect="1" arrows="1" fold="1" page="1" pageScale="1" pageWidth="1169" pageHeight="827" math="0" shadow="0">
      <root>
        <mxCell id="0" />
        <mxCell id="1" parent="0" />
        <mxCell id="GBsECiFbeyGKXCBm6ZJ--87" style="edgeStyle=orthogonalEdgeStyle;rounded=0;orthogonalLoop=1;jettySize=auto;html=1;fontSize=19;" edge="1" parent="1" source="GBsECiFbeyGKXCBm6ZJ--56">
          <mxGeometry relative="1" as="geometry">
            <mxPoint x="490" y="234.5000000000001" as="targetPoint" />
          </mxGeometry>
        </mxCell>
        <mxCell id="GBsECiFbeyGKXCBm6ZJ--56" value="" style="rounded=0;whiteSpace=wrap;html=1;dashed=1;fillColor=#d5e8d4;strokeColor=#82b366;" vertex="1" parent="1">
          <mxGeometry x="292.5" y="100" width="127.5" height="269" as="geometry" />
        </mxCell>
        <mxCell id="GBsECiFbeyGKXCBm6ZJ--110" style="edgeStyle=orthogonalEdgeStyle;rounded=0;orthogonalLoop=1;jettySize=auto;html=1;fontSize=19;" edge="1" parent="1" source="GBsECiFbeyGKXCBm6ZJ--52" target="UEzPUAAOIrF-is8g5C7q-120">
          <mxGeometry relative="1" as="geometry">
            <Array as="points">
              <mxPoint x="599" y="606" />
              <mxPoint x="599" y="599" />
            </Array>
          </mxGeometry>
        </mxCell>
        <mxCell id="GBsECiFbeyGKXCBm6ZJ--52" value="" style="rounded=0;whiteSpace=wrap;html=1;dashed=1;fillColor=#dae8fc;strokeColor=#6c8ebf;" vertex="1" parent="1">
          <mxGeometry x="297.5" y="461" width="120" height="289" as="geometry" />
        </mxCell>
        <mxCell id="UEzPUAAOIrF-is8g5C7q-111" value="Amazon &lt;br&gt;Cognito" style="outlineConnect=0;fontColor=#232F3E;gradientColor=#F54749;gradientDirection=north;fillColor=#C7131F;strokeColor=#ffffff;dashed=0;verticalLabelPosition=bottom;verticalAlign=top;align=center;html=1;fontSize=12;fontStyle=0;aspect=fixed;shape=mxgraph.aws4.resourceIcon;resIcon=mxgraph.aws4.cognito;labelBackgroundColor=#ffffff;" parent="1" vertex="1">
          <mxGeometry x="140" y="273" width="40" height="40" as="geometry" />
        </mxCell>
        <mxCell id="UEzPUAAOIrF-is8g5C7q-113" value="Categories" style="outlineConnect=0;fontColor=#232F3E;gradientColor=#F78E04;gradientDirection=north;fillColor=#D05C17;strokeColor=#ffffff;dashed=0;verticalLabelPosition=bottom;verticalAlign=top;align=center;html=1;fontSize=12;fontStyle=0;aspect=fixed;shape=mxgraph.aws4.resourceIcon;resIcon=mxgraph.aws4.lambda;labelBackgroundColor=#ffffff;spacingTop=3;" parent="1" vertex="1">
          <mxGeometry x="324" y="124" width="46" height="46" as="geometry" />
        </mxCell>
        <mxCell id="GBsECiFbeyGKXCBm6ZJ--41" style="edgeStyle=orthogonalEdgeStyle;rounded=0;orthogonalLoop=1;jettySize=auto;html=1;" edge="1" parent="1" source="UEzPUAAOIrF-is8g5C7q-114" target="UEzPUAAOIrF-is8g5C7q-111">
          <mxGeometry relative="1" as="geometry" />
        </mxCell>
        <mxCell id="GBsECiFbeyGKXCBm6ZJ--49" style="edgeStyle=orthogonalEdgeStyle;rounded=0;orthogonalLoop=1;jettySize=auto;html=1;" edge="1" parent="1">
          <mxGeometry relative="1" as="geometry">
            <mxPoint x="220" y="442" as="sourcePoint" />
            <mxPoint x="320" y="519" as="targetPoint" />
            <Array as="points">
              <mxPoint x="220" y="519" />
            </Array>
          </mxGeometry>
        </mxCell>
        <mxCell id="UEzPUAAOIrF-is8g5C7q-114" value="Amazon API&lt;br&gt;Gateway&lt;br&gt;" style="outlineConnect=0;fontColor=#232F3E;gradientColor=#945DF2;gradientDirection=north;fillColor=#5A30B5;strokeColor=#ffffff;dashed=0;verticalLabelPosition=bottom;verticalAlign=top;align=center;html=1;fontSize=12;fontStyle=0;aspect=fixed;shape=mxgraph.aws4.resourceIcon;resIcon=mxgraph.aws4.api_gateway;labelBackgroundColor=#ffffff;direction=south;" parent="1" vertex="1">
          <mxGeometry x="200" y="376" width="37" height="37" as="geometry" />
        </mxCell>
        <mxCell id="GBsECiFbeyGKXCBm6ZJ--88" style="edgeStyle=orthogonalEdgeStyle;rounded=0;orthogonalLoop=1;jettySize=auto;html=1;entryX=0;entryY=0.5;entryDx=0;entryDy=0;entryPerimeter=0;fontSize=19;" edge="1" parent="1" source="UEzPUAAOIrF-is8g5C7q-119" target="GBsECiFbeyGKXCBm6ZJ--7">
          <mxGeometry relative="1" as="geometry" />
        </mxCell>
        <mxCell id="UEzPUAAOIrF-is8g5C7q-119" value="Dynamo Event Store" style="outlineConnect=0;fontColor=#232F3E;gradientColor=#4D72F3;gradientDirection=north;fillColor=#3334B9;strokeColor=#ffffff;dashed=0;verticalLabelPosition=bottom;verticalAlign=top;align=center;html=1;fontSize=12;fontStyle=0;aspect=fixed;shape=mxgraph.aws4.resourceIcon;resIcon=mxgraph.aws4.dynamodb;labelBackgroundColor=#ffffff;spacingTop=5;" parent="1" vertex="1">
          <mxGeometry x="495" y="215" width="42" height="42" as="geometry" />
        </mxCell>
        <mxCell id="UEzPUAAOIrF-is8g5C7q-120" value="Amazon&lt;br&gt;ElasticSearch&lt;br&gt;Service&lt;br&gt;" style="outlineConnect=0;fontColor=#232F3E;gradientColor=#945DF2;gradientDirection=north;fillColor=#5A30B5;strokeColor=#ffffff;dashed=0;verticalLabelPosition=bottom;verticalAlign=top;align=center;html=1;fontSize=12;fontStyle=0;aspect=fixed;shape=mxgraph.aws4.resourceIcon;resIcon=mxgraph.aws4.elasticsearch_service;labelBackgroundColor=#ffffff;" parent="1" vertex="1">
          <mxGeometry x="780" y="574" width="50" height="50" as="geometry" />
        </mxCell>
        <mxCell id="UEzPUAAOIrF-is8g5C7q-121" value="Amazon&lt;br&gt;CloudWatch&lt;br&gt;" style="outlineConnect=0;fontColor=#232F3E;gradientColor=#F34482;gradientDirection=north;fillColor=#BC1356;strokeColor=#ffffff;dashed=0;verticalLabelPosition=bottom;verticalAlign=top;align=center;html=1;fontSize=12;fontStyle=0;aspect=fixed;shape=mxgraph.aws4.resourceIcon;resIcon=mxgraph.aws4.cloudwatch;labelBackgroundColor=#ffffff;" parent="1" vertex="1">
          <mxGeometry x="1050.0000000000002" y="620" width="78" height="78" as="geometry" />
        </mxCell>
        <mxCell id="UEzPUAAOIrF-is8g5C7q-123" value="Amazon&lt;br&gt;CloudWatch Logs&lt;br&gt;" style="outlineConnect=0;fontColor=#232F3E;gradientColor=none;gradientDirection=north;fillColor=#F34482;strokeColor=none;dashed=0;verticalLabelPosition=bottom;verticalAlign=top;align=center;html=1;fontSize=12;fontStyle=0;aspect=fixed;shape=mxgraph.aws4.cloudwatch;labelBackgroundColor=#ffffff;" parent="1" vertex="1">
          <mxGeometry x="608.0000000000002" y="780" width="78" height="78" as="geometry" />
        </mxCell>
        <mxCell id="GBsECiFbeyGKXCBm6ZJ--93" style="edgeStyle=orthogonalEdgeStyle;rounded=0;orthogonalLoop=1;jettySize=auto;html=1;fontSize=19;" edge="1" parent="1" source="GBsECiFbeyGKXCBm6ZJ--7" target="GBsECiFbeyGKXCBm6ZJ--66">
          <mxGeometry relative="1" as="geometry">
            <mxPoint x="720" y="236" as="targetPoint" />
          </mxGeometry>
        </mxCell>
        <mxCell id="GBsECiFbeyGKXCBm6ZJ--7" value="Dynamo DB Stream" style="sketch=0;points=[[0,0,0],[0.25,0,0],[0.5,0,0],[0.75,0,0],[1,0,0],[0,1,0],[0.25,1,0],[0.5,1,0],[0.75,1,0],[1,1,0],[0,0.25,0],[0,0.5,0],[0,0.75,0],[1,0.25,0],[1,0.5,0],[1,0.75,0]];outlineConnect=0;fontColor=#232F3E;gradientColor=#945DF2;gradientDirection=north;fillColor=#5A30B5;strokeColor=#ffffff;dashed=0;verticalLabelPosition=bottom;verticalAlign=top;align=center;html=1;fontSize=12;fontStyle=0;aspect=fixed;shape=mxgraph.aws4.resourceIcon;resIcon=mxgraph.aws4.kinesis;" vertex="1" parent="1">
          <mxGeometry x="630" y="215" width="42" height="42" as="geometry" />
        </mxCell>
        <mxCell id="GBsECiFbeyGKXCBm6ZJ--15" style="edgeStyle=orthogonalEdgeStyle;rounded=0;orthogonalLoop=1;jettySize=auto;html=1;" edge="1" parent="1" source="GBsECiFbeyGKXCBm6ZJ--14" target="UEzPUAAOIrF-is8g5C7q-114">
          <mxGeometry relative="1" as="geometry" />
        </mxCell>
        <mxCell id="GBsECiFbeyGKXCBm6ZJ--14" value="" style="fontColor=#0066CC;verticalAlign=top;verticalLabelPosition=bottom;labelPosition=center;align=center;html=1;outlineConnect=0;fillColor=#CCCCCC;strokeColor=#6881B3;gradientColor=none;gradientDirection=north;strokeWidth=2;shape=mxgraph.networks.pc;" vertex="1" parent="1">
          <mxGeometry x="20" y="369" width="60" height="52" as="geometry" />
        </mxCell>
        <mxCell id="GBsECiFbeyGKXCBm6ZJ--42" value="Optional" style="text;html=1;resizable=0;autosize=1;align=center;verticalAlign=middle;points=[];fillColor=none;strokeColor=none;rounded=0;dashed=1;" vertex="1" parent="1">
          <mxGeometry x="120" y="218" width="60" height="20" as="geometry" />
        </mxCell>
        <mxCell id="GBsECiFbeyGKXCBm6ZJ--43" value="List products" style="outlineConnect=0;fontColor=#232F3E;gradientColor=#F78E04;gradientDirection=north;fillColor=#D05C17;strokeColor=#ffffff;dashed=0;verticalLabelPosition=bottom;verticalAlign=top;align=center;html=1;fontSize=12;fontStyle=0;aspect=fixed;shape=mxgraph.aws4.resourceIcon;resIcon=mxgraph.aws4.lambda;labelBackgroundColor=#ffffff;spacingTop=3;" vertex="1" parent="1">
          <mxGeometry x="320" y="640" width="50" height="50" as="geometry" />
        </mxCell>
        <mxCell id="GBsECiFbeyGKXCBm6ZJ--48" value="List categories" style="outlineConnect=0;fontColor=#232F3E;gradientColor=#F78E04;gradientDirection=north;fillColor=#D05C17;strokeColor=#ffffff;dashed=0;verticalLabelPosition=bottom;verticalAlign=top;align=center;html=1;fontSize=12;fontStyle=0;aspect=fixed;shape=mxgraph.aws4.resourceIcon;resIcon=mxgraph.aws4.lambda;labelBackgroundColor=#ffffff;spacingTop=3;" vertex="1" parent="1">
          <mxGeometry x="320" y="490" width="50" height="50" as="geometry" />
        </mxCell>
        <mxCell id="GBsECiFbeyGKXCBm6ZJ--51" value="" style="endArrow=classic;html=1;rounded=0;" edge="1" parent="1">
          <mxGeometry width="50" height="50" relative="1" as="geometry">
            <mxPoint x="219.60072595281304" y="413" as="sourcePoint" />
            <mxPoint x="321" y="670" as="targetPoint" />
            <Array as="points">
              <mxPoint x="221" y="670" />
            </Array>
          </mxGeometry>
        </mxCell>
        <mxCell id="GBsECiFbeyGKXCBm6ZJ--53" value="&lt;font style=&quot;font-size: 19px&quot;&gt;QUERY&lt;/font&gt;" style="text;html=1;strokeColor=none;fillColor=none;align=center;verticalAlign=middle;whiteSpace=wrap;rounded=0;dashed=1;fontStyle=1" vertex="1" parent="1">
          <mxGeometry x="315" y="590" width="85" height="40" as="geometry" />
        </mxCell>
        <mxCell id="GBsECiFbeyGKXCBm6ZJ--59" value="Products" style="outlineConnect=0;fontColor=#232F3E;gradientColor=#F78E04;gradientDirection=north;fillColor=#D05C17;strokeColor=#ffffff;dashed=0;verticalLabelPosition=bottom;verticalAlign=top;align=center;html=1;fontSize=12;fontStyle=0;aspect=fixed;shape=mxgraph.aws4.resourceIcon;resIcon=mxgraph.aws4.lambda;labelBackgroundColor=#ffffff;spacingTop=3;" vertex="1" parent="1">
          <mxGeometry x="324" y="259" width="42" height="42" as="geometry" />
        </mxCell>
        <mxCell id="GBsECiFbeyGKXCBm6ZJ--60" value="&lt;font style=&quot;font-size: 19px&quot;&gt;COMMAND&lt;/font&gt;" style="text;html=1;strokeColor=none;fillColor=none;align=center;verticalAlign=middle;whiteSpace=wrap;rounded=0;dashed=1;fontStyle=1" vertex="1" parent="1">
          <mxGeometry x="315" y="208" width="85" height="40" as="geometry" />
        </mxCell>
        <mxCell id="GBsECiFbeyGKXCBm6ZJ--92" style="edgeStyle=orthogonalEdgeStyle;rounded=0;orthogonalLoop=1;jettySize=auto;html=1;fontSize=19;" edge="1" parent="1" source="GBsECiFbeyGKXCBm6ZJ--66">
          <mxGeometry relative="1" as="geometry">
            <mxPoint x="820" y="236" as="targetPoint" />
          </mxGeometry>
        </mxCell>
        <mxCell id="GBsECiFbeyGKXCBm6ZJ--66" value="" style="outlineConnect=0;fontColor=#232F3E;gradientColor=#F78E04;gradientDirection=north;fillColor=#D05C17;strokeColor=#ffffff;dashed=0;verticalLabelPosition=bottom;verticalAlign=top;align=center;html=1;fontSize=12;fontStyle=0;aspect=fixed;shape=mxgraph.aws4.resourceIcon;resIcon=mxgraph.aws4.lambda;labelBackgroundColor=#ffffff;spacingTop=3;" vertex="1" parent="1">
          <mxGeometry x="730" y="215" width="42" height="42" as="geometry" />
        </mxCell>
        <mxCell id="GBsECiFbeyGKXCBm6ZJ--68" value="" style="endArrow=classic;html=1;rounded=0;fontSize=19;" edge="1" parent="1" target="GBsECiFbeyGKXCBm6ZJ--59">
          <mxGeometry width="50" height="50" relative="1" as="geometry">
            <mxPoint x="220" y="380" as="sourcePoint" />
            <mxPoint x="220" y="280" as="targetPoint" />
            <Array as="points">
              <mxPoint x="220" y="281" />
            </Array>
          </mxGeometry>
        </mxCell>
        <mxCell id="GBsECiFbeyGKXCBm6ZJ--69" value="" style="endArrow=classic;html=1;rounded=0;fontSize=19;" edge="1" parent="1" target="UEzPUAAOIrF-is8g5C7q-113">
          <mxGeometry width="50" height="50" relative="1" as="geometry">
            <mxPoint x="220" y="380" as="sourcePoint" />
            <mxPoint x="250" y="320" as="targetPoint" />
            <Array as="points">
              <mxPoint x="220" y="147" />
            </Array>
          </mxGeometry>
        </mxCell>
        <mxCell id="GBsECiFbeyGKXCBm6ZJ--101" style="edgeStyle=orthogonalEdgeStyle;rounded=0;orthogonalLoop=1;jettySize=auto;html=1;fontSize=19;" edge="1" parent="1" source="GBsECiFbeyGKXCBm6ZJ--81" target="UEzPUAAOIrF-is8g5C7q-120">
          <mxGeometry relative="1" as="geometry" />
        </mxCell>
        <mxCell id="GBsECiFbeyGKXCBm6ZJ--81" value="" style="outlineConnect=0;fontColor=#232F3E;gradientColor=#F78E04;gradientDirection=north;fillColor=#D05C17;strokeColor=#ffffff;dashed=0;verticalLabelPosition=bottom;verticalAlign=top;align=center;html=1;fontSize=12;fontStyle=0;aspect=fixed;shape=mxgraph.aws4.resourceIcon;resIcon=mxgraph.aws4.lambda;labelBackgroundColor=#ffffff;spacingTop=3;" vertex="1" parent="1">
          <mxGeometry x="789" y="382" width="31" height="31" as="geometry" />
        </mxCell>
        <mxCell id="GBsECiFbeyGKXCBm6ZJ--102" style="edgeStyle=orthogonalEdgeStyle;rounded=0;orthogonalLoop=1;jettySize=auto;html=1;fontSize=19;" edge="1" parent="1" source="GBsECiFbeyGKXCBm6ZJ--83" target="GBsECiFbeyGKXCBm6ZJ--86">
          <mxGeometry relative="1" as="geometry">
            <mxPoint x="950" y="560" as="targetPoint" />
          </mxGeometry>
        </mxCell>
        <mxCell id="GBsECiFbeyGKXCBm6ZJ--83" value="" style="outlineConnect=0;fontColor=#232F3E;gradientColor=#F78E04;gradientDirection=north;fillColor=#D05C17;strokeColor=#ffffff;dashed=0;verticalLabelPosition=bottom;verticalAlign=top;align=center;html=1;fontSize=12;fontStyle=0;aspect=fixed;shape=mxgraph.aws4.resourceIcon;resIcon=mxgraph.aws4.lambda;labelBackgroundColor=#ffffff;spacingTop=3;" vertex="1" parent="1">
          <mxGeometry x="929.5" y="382" width="31" height="31" as="geometry" />
        </mxCell>
        <mxCell id="GBsECiFbeyGKXCBm6ZJ--86" value="Amazon S3" style="sketch=0;outlineConnect=0;fontColor=#232F3E;gradientColor=none;strokeColor=#ffffff;fillColor=#232F3E;dashed=0;verticalLabelPosition=middle;verticalAlign=bottom;align=center;html=1;whiteSpace=wrap;fontSize=10;fontStyle=1;spacing=3;shape=mxgraph.aws4.productIcon;prIcon=mxgraph.aws4.s3;" vertex="1" parent="1">
          <mxGeometry x="920" y="574" width="50" height="80" as="geometry" />
        </mxCell>
        <mxCell id="GBsECiFbeyGKXCBm6ZJ--105" style="edgeStyle=orthogonalEdgeStyle;rounded=0;orthogonalLoop=1;jettySize=auto;html=1;fontSize=19;" edge="1" parent="1" source="GBsECiFbeyGKXCBm6ZJ--96" target="GBsECiFbeyGKXCBm6ZJ--98">
          <mxGeometry relative="1" as="geometry">
            <Array as="points">
              <mxPoint x="872" y="270" />
              <mxPoint x="800" y="270" />
            </Array>
          </mxGeometry>
        </mxCell>
        <mxCell id="GBsECiFbeyGKXCBm6ZJ--106" style="edgeStyle=orthogonalEdgeStyle;rounded=0;orthogonalLoop=1;jettySize=auto;html=1;fontSize=19;" edge="1" parent="1" target="GBsECiFbeyGKXCBm6ZJ--99">
          <mxGeometry relative="1" as="geometry">
            <mxPoint x="868.4782608695655" y="259.9999999999999" as="sourcePoint" />
            <mxPoint x="951" y="301" as="targetPoint" />
            <Array as="points">
              <mxPoint x="868" y="270" />
              <mxPoint x="946" y="270" />
            </Array>
          </mxGeometry>
        </mxCell>
        <mxCell id="GBsECiFbeyGKXCBm6ZJ--96" value="" style="sketch=0;points=[[0,0,0],[0.25,0,0],[0.5,0,0],[0.75,0,0],[1,0,0],[0,1,0],[0.25,1,0],[0.5,1,0],[0.75,1,0],[1,1,0],[0,0.25,0],[0,0.5,0],[0,0.75,0],[1,0.25,0],[1,0.5,0],[1,0.75,0]];outlineConnect=0;fontColor=#232F3E;gradientColor=#FF4F8B;gradientDirection=north;fillColor=#BC1356;strokeColor=#ffffff;dashed=0;verticalLabelPosition=bottom;verticalAlign=top;align=center;html=1;fontSize=12;fontStyle=0;aspect=fixed;shape=mxgraph.aws4.resourceIcon;resIcon=mxgraph.aws4.sns;" vertex="1" parent="1">
          <mxGeometry x="850" y="215" width="45" height="45" as="geometry" />
        </mxCell>
        <mxCell id="GBsECiFbeyGKXCBm6ZJ--103" style="edgeStyle=orthogonalEdgeStyle;rounded=0;orthogonalLoop=1;jettySize=auto;html=1;fontSize=19;" edge="1" parent="1" source="GBsECiFbeyGKXCBm6ZJ--98" target="GBsECiFbeyGKXCBm6ZJ--81">
          <mxGeometry relative="1" as="geometry" />
        </mxCell>
        <mxCell id="GBsECiFbeyGKXCBm6ZJ--98" value="" style="sketch=0;points=[[0,0,0],[0.25,0,0],[0.5,0,0],[0.75,0,0],[1,0,0],[0,1,0],[0.25,1,0],[0.5,1,0],[0.75,1,0],[1,1,0],[0,0.25,0],[0,0.5,0],[0,0.75,0],[1,0.25,0],[1,0.5,0],[1,0.75,0]];outlineConnect=0;fontColor=#232F3E;gradientColor=#FF4F8B;gradientDirection=north;fillColor=#BC1356;strokeColor=#ffffff;dashed=0;verticalLabelPosition=bottom;verticalAlign=top;align=center;html=1;fontSize=12;fontStyle=0;aspect=fixed;shape=mxgraph.aws4.resourceIcon;resIcon=mxgraph.aws4.sqs;" vertex="1" parent="1">
          <mxGeometry x="784" y="301" width="40" height="40" as="geometry" />
        </mxCell>
        <mxCell id="GBsECiFbeyGKXCBm6ZJ--104" style="edgeStyle=orthogonalEdgeStyle;rounded=0;orthogonalLoop=1;jettySize=auto;html=1;fontSize=19;" edge="1" parent="1" source="GBsECiFbeyGKXCBm6ZJ--99" target="GBsECiFbeyGKXCBm6ZJ--83">
          <mxGeometry relative="1" as="geometry" />
        </mxCell>
        <mxCell id="GBsECiFbeyGKXCBm6ZJ--99" value="" style="sketch=0;points=[[0,0,0],[0.25,0,0],[0.5,0,0],[0.75,0,0],[1,0,0],[0,1,0],[0.25,1,0],[0.5,1,0],[0.75,1,0],[1,1,0],[0,0.25,0],[0,0.5,0],[0,0.75,0],[1,0.25,0],[1,0.5,0],[1,0.75,0]];outlineConnect=0;fontColor=#232F3E;gradientColor=#FF4F8B;gradientDirection=north;fillColor=#BC1356;strokeColor=#ffffff;dashed=0;verticalLabelPosition=bottom;verticalAlign=top;align=center;html=1;fontSize=12;fontStyle=0;aspect=fixed;shape=mxgraph.aws4.resourceIcon;resIcon=mxgraph.aws4.sqs;" vertex="1" parent="1">
          <mxGeometry x="925" y="300" width="41" height="41" as="geometry" />
        </mxCell>
        <mxCell id="GBsECiFbeyGKXCBm6ZJ--108" value="" style="rounded=1;whiteSpace=wrap;html=1;fontSize=19;strokeWidth=4;strokeColor=#d6b656;fillColor=#fff2cc;" vertex="1" parent="1">
          <mxGeometry x="463.5" y="10" width="105" height="140" as="geometry" />
        </mxCell>
        <mxCell id="GBsECiFbeyGKXCBm6ZJ--109" value="" style="rounded=1;whiteSpace=wrap;html=1;fontSize=19;strokeWidth=4;strokeColor=#d6b656;fillColor=#fff2cc;" vertex="1" parent="1">
          <mxGeometry x="490" y="335.5" width="105" height="140" as="geometry" />
        </mxCell>
      </root>
    </mxGraphModel>
  </diagram>
</mxfile>
